<svg width="680" height="682" viewBox="0 0 680 682" fill="none" xmlns="http://www.w3.org/2000/svg">
<g style="mix-blend-mode:plus-darker">
<path fill-rule="evenodd" clip-rule="evenodd" d="M317.56 0.474931C317.679 0.460996 317.792 0.529722 317.834 0.641469L330.177 33.5325C330.18 33.5399 330.182 33.5474 330.185 33.5551C330.186 33.5598 330.187 33.5645 330.188 33.5692L336.319 62.1574L366.982 64.2C366.989 64.2005 366.996 64.2012 367.003 64.2022C367.007 64.2029 367.012 64.2036 367.016 64.2045L397.674 70.3315L409.932 43.7933C409.934 43.7887 409.936 43.7843 409.939 43.7799L426.397 12.9446C426.454 12.8382 426.576 12.785 426.693 12.816L457.552 21.0388C457.564 21.0422 457.577 21.0465 457.589 21.0518L490.505 35.4416C490.616 35.49 490.679 35.6084 490.656 35.7272L484.484 68.6182C484.483 68.626 484.481 68.6338 484.479 68.6414C484.478 68.6451 484.477 68.6488 484.476 68.6524L474.256 99.2877L498.761 113.571C498.773 113.579 498.785 113.587 498.796 113.596L523.344 134.037L547.861 119.747L547.874 119.738L578.72 99.1897C578.826 99.119 578.968 99.1359 579.054 99.2296L603.742 125.953L603.751 125.963L624.323 150.632C624.406 150.731 624.403 150.877 624.315 150.973L601.685 175.641L601.677 175.65L579.172 198.138L591.278 226.365L593.295 226.601C593.388 226.611 593.468 226.672 593.504 226.758C593.54 226.844 593.527 226.944 593.47 227.018L592.276 228.552L603.712 253.311L634.393 251.268C634.399 251.267 634.404 251.267 634.41 251.267H669.384C669.507 251.267 669.614 251.354 669.638 251.476L675.81 282.311C675.811 282.315 675.811 282.319 675.812 282.323L675.813 282.331L679.928 317.278C679.942 317.398 679.871 317.512 679.757 317.553L650.956 327.831L650.946 327.835L618.198 338.06L616.154 366.663C616.153 366.669 616.153 366.674 616.152 366.679L612.063 397.325L638.633 409.579C638.64 409.582 638.647 409.585 638.653 409.589L667.455 426.035C667.551 426.089 667.602 426.199 667.581 426.308L661.41 459.199C661.406 459.22 661.399 459.241 661.39 459.261L646.989 490.096C646.939 490.202 646.824 490.262 646.709 490.242L611.735 484.075L611.729 484.074L581.045 477.941L566.739 500.404C566.733 500.413 566.727 500.422 566.72 500.431L546.271 524.95L562.622 549.457L562.624 549.461L581.139 578.24C581.203 578.34 581.192 578.469 581.112 578.556L558.482 603.224C558.474 603.234 558.464 603.243 558.454 603.251C558.45 603.254 558.446 603.257 558.442 603.26L529.64 623.817C529.54 623.888 529.404 623.88 529.314 623.797L480.081 578.701L455.558 592.995C455.545 593.003 455.53 593.01 455.515 593.015L426.899 603.227L428.942 631.81L428.943 631.819L428.943 631.829V668.831C428.943 668.949 428.864 669.052 428.75 669.082L397.891 677.305C397.879 677.308 397.867 677.31 397.854 677.312L362.881 681.423C362.757 681.438 362.64 681.362 362.603 681.243L352.317 648.352L352.315 648.346L344.136 619.74L315.515 617.698L315.508 617.697C315.505 617.697 315.502 617.697 315.499 617.696L284.818 613.608L270.502 640.174L254.044 671.009C253.983 671.124 253.846 671.175 253.724 671.13L220.808 658.796L220.803 658.794L189.944 646.459C189.827 646.413 189.761 646.29 189.786 646.168L195.957 615.335L195.957 615.332L202.098 582.606L179.601 566.257C179.598 566.254 179.595 566.252 179.592 566.25L179.589 566.248L157.102 547.863L130.53 564.202L130.515 564.212L101.728 584.759C101.618 584.838 101.467 584.819 101.379 584.716L78.7494 557.992L78.7418 557.982L58.1691 531.258C58.095 531.162 58.0976 531.027 58.1755 530.934L78.7482 506.266C78.7516 506.261 78.7552 506.257 78.7589 506.253L78.764 506.248L101.257 483.772L86.9481 457.218C86.9449 457.212 86.9419 457.206 86.9392 457.2C86.9366 457.194 86.9343 457.189 86.9322 457.183L76.7074 428.575H48.0884L11.0719 430.63C10.943 430.638 10.8285 430.549 10.8031 430.422L4.63132 399.587C4.62995 399.58 4.62886 399.573 4.62805 399.566L0.513511 364.62C0.499369 364.5 0.570089 364.386 0.684002 364.345L29.4858 354.066L29.4956 354.063L62.2431 343.837L64.2877 315.234C64.2882 315.228 64.2888 315.222 64.2897 315.216L68.3795 286.609L43.8503 272.312L10.9416 255.87C10.8314 255.815 10.7751 255.69 10.8069 255.571L19.0359 224.736C19.0366 224.733 19.0372 224.731 19.0379 224.729C19.041 224.718 19.0446 224.708 19.0489 224.698L33.4498 191.807C33.4978 191.698 33.6147 191.635 33.7326 191.656L68.7062 197.823C68.7167 197.825 68.7271 197.827 68.7374 197.831L95.3075 206L113.721 181.467L134.172 156.945L115.76 128.326L115.757 128.321L99.2992 101.597C99.2361 101.495 99.2517 101.363 99.3367 101.278L121.967 78.6652C121.977 78.6551 121.988 78.6459 121.999 78.6376L150.801 58.0807C150.901 58.0097 151.036 58.0177 151.126 58.0998L173.756 78.6567L173.757 78.6574L198.317 101.153L224.905 88.8916C224.912 88.8883 224.919 88.8854 224.926 88.8828L253.542 78.6706L251.499 50.0876C251.499 50.0815 251.499 50.0753 251.499 50.0691V13.0668C251.499 12.9492 251.578 12.8463 251.691 12.816L282.55 4.59328C282.562 4.59009 282.574 4.58775 282.587 4.58631L317.56 0.474931ZM254.212 78.9148L270.546 69.21L286.573 85.2241L291.25 94.8383L265.806 92.5444L254.212 78.9148ZM265.068 92.4779L253.894 79.3413L249.091 91.0374L265.068 92.4779ZM248.885 91.5399L265.548 93.0422L276.59 106.022L271.089 108.569L243.058 105.733L248.885 91.5399ZM248.551 90.9887L253.354 79.2889L226.213 88.9748L248.551 90.9887ZM224.239 89.7701L199.241 101.299L214.931 102.887L224.239 89.7701ZM214.586 103.373L198.758 101.772L206.533 114.721L214.586 103.373ZM206.825 115.206L215.18 103.433L228.493 104.78L233.558 125.948L217.688 133.297L206.825 115.206ZM206.205 115.183L198.252 101.937L178.454 130.199L180.288 150.615L181.439 150.082L206.205 115.183ZM182.387 149.643L206.497 115.668L217.214 133.516L182.387 149.643ZM180.835 150.934L180.337 151.165L180.375 151.583L180.835 150.934ZM180.446 152.379L181.783 150.495L217.483 133.964L225.455 147.241L216.071 170.098L180.698 155.186L180.446 152.379ZM179.912 152.234L179.837 151.396L175.963 153.19L178.481 154.252L179.912 152.234ZM178.971 154.458L179.984 153.03L180.157 154.958L178.971 154.458ZM178.173 154.685L175.326 153.485L169.034 156.398L168.763 160.765L171.925 163.489L178.173 154.685ZM172.32 163.829L178.663 154.892L180.209 155.544L181.678 171.89L172.32 163.829ZM171.624 163.914L168.723 161.416L168.276 168.632L171.624 163.914ZM168.215 169.615L172.019 164.254L181.744 172.632L182.739 183.711L167.858 175.37L168.215 169.615ZM167.706 169.435L168.229 160.99L165.044 158.246L155.811 162.522L152.745 166.898L164.736 173.62L167.706 169.435ZM165.192 173.875L167.645 170.418L167.356 175.088L165.192 173.875ZM164.434 174.045L152.446 167.325L132.524 195.763L143.158 204.027L164.434 174.045ZM143.568 204.346L164.89 174.301L167.32 175.663L164.532 220.638L143.568 204.346ZM142.858 204.451L132.226 196.188L109.638 228.432L108.826 236.792L109.013 237.225L116.418 241.709L142.858 204.451ZM116.863 241.979L143.268 204.769L164.493 221.265L163.255 241.23L121.965 245.068L116.863 241.979ZM116.117 242.133L109.366 238.046L112.761 245.924L113.474 245.857L116.117 242.133ZM114.155 245.794L116.562 242.403L121.096 245.149L114.155 245.794ZM113.078 246.416L112.977 246.425L113.012 246.508L113.078 246.416ZM113.253 247.066L113.759 246.352L121.842 245.601L161.495 269.615L161.358 271.824H128.035L119.126 260.696L113.253 247.066ZM112.661 247.003L112.434 246.475L108.066 246.881L110.547 249.981L112.661 247.003ZM110.885 250.403L112.901 247.561L117.903 259.168L110.885 250.403ZM110.235 250.421L107.799 247.378L107.07 254.881L110.235 250.421ZM106.969 255.92L110.572 250.843L118.677 260.966L123.356 271.824H105.425L106.969 255.92ZM106.466 255.733L107.319 246.951L95.9228 248.01L79.2403 271.824H95.0471L106.466 255.733ZM95.6835 271.824L106.365 256.772L104.904 271.824H95.6835ZM94.6788 272.343H78.8768L68.9816 286.468L77.0381 297.202L94.6788 272.343ZM77.3652 297.637L95.3152 272.343H104.853L99.5304 327.168L77.3652 297.637ZM76.7228 297.646L68.8294 287.13L64.9551 314.229L76.7228 297.646ZM64.7697 315.771L62.766 343.801L97.5564 347.499L97.9939 342.994L64.7697 315.771ZM98.4768 343.39L98.0725 347.554L104.377 348.224L98.4768 343.39ZM105.318 348.324L98.5372 342.768L99.9177 328.549L115.579 349.415L105.318 348.324ZM105.109 348.824L98.0224 348.071L94.5352 383.988L102.235 385.603L117.984 359.374L105.109 348.824ZM118.255 358.924L106.05 348.924L116.005 349.982L120.238 355.621L118.255 358.924ZM118.39 359.706L102.773 385.715L119.882 389.304L135.188 375.539L131.152 370.163L118.39 359.706ZM129.844 368.42L118.66 359.256L120.574 356.069L129.844 368.42ZM132.838 371.544L135.575 375.191L136.392 374.456L132.838 371.544ZM136.782 374.105L131.53 369.801L120.862 355.589L123.736 350.804L158.574 354.507L136.782 374.105ZM136.798 374.789L135.888 375.608L144.388 386.932L146.319 382.59L136.798 374.789ZM146.537 382.098L137.188 374.438L158.449 355.318L146.537 382.098ZM146.735 382.931L144.744 387.407L151.078 395.846L166.425 399.064L146.735 382.931ZM166.391 399.588L151.55 396.475L156.296 402.797L166.391 399.588ZM155.772 402.964L150.78 396.314L141.636 394.396L134.869 409.61L155.772 402.964ZM134.587 410.244L156.102 403.404L165.968 416.548L163.945 445.646L119.848 452.072L117.749 448.099L134.587 410.244ZM134.207 409.82L141.116 394.287L120.033 389.866L97.6318 410.011L102.804 419.804L134.207 409.82ZM103.05 420.271L133.925 410.454L117.441 447.515L103.05 420.271ZM102.302 419.964L97.2339 410.369L91.4706 415.552L90.6836 423.658L102.302 419.964ZM90.6291 424.22L102.548 420.43L117.173 448.119L115.107 452.763L106.195 454.062L89.2009 438.93L90.6291 424.22ZM90.1456 423.829L90.8993 416.066L77.9588 427.704L90.1456 423.829ZM78.0037 426.965L90.9736 415.301L92.1243 403.449L78.0037 426.965ZM92.7463 402.413L91.5449 414.788L96.984 409.896L92.8981 402.16L92.7463 402.413ZM93.2103 401.64L97.3819 409.538L119.404 389.734L102.49 386.186L93.2103 401.64ZM101.952 386.074L94.4847 384.508L92.8817 401.018L92.927 401.104L101.952 386.074ZM92.4413 400.184L93.9737 384.4L82.8751 382.073L92.4413 400.184ZM82.5601 381.477L94.0242 383.881L97.5063 348.016L62.9462 344.342L82.5601 381.477ZM62.1005 344.767L38.3878 367.616L41.7824 372.925L56.753 376.064L62.1005 344.767ZM57.2612 376.171L81.9001 381.338L62.6165 344.829L57.2612 376.171ZM57.1738 376.683L82.2151 381.934L92.3501 401.123L92.2411 402.246L76.8832 427.823L54.4348 392.713L57.1738 376.683ZM56.6655 376.576L42.1739 373.537L54.0193 392.064L56.6655 376.576ZM53.8894 392.824L41.4626 373.388L34.2342 371.872L48.0405 427.055L53.8894 392.824ZM47.5207 427.116L33.7518 372.083L22.9895 382.453L20.8584 391.207L47.5207 427.116ZM20.4561 390.665L22.2917 383.125L17.9578 387.301L20.4561 390.665ZM17.581 387.664L20.2965 391.321L16.4908 406.955L5.29817 399.499L17.581 387.664ZM17.6459 386.881L22.5209 382.183L25.478 370.036L1.3872 364.984L17.6459 386.881ZM1.72544 364.524L25.6008 369.531L29.2071 354.717L1.72544 364.524ZM29.5764 355.394L26.109 369.638L33.5296 371.194L29.5764 355.394ZM33.4032 371.698L25.9862 370.142L23.2187 381.511L33.4032 371.698ZM34.4694 371.391L38.0066 367.983L41.071 372.776L34.4694 371.391ZM37.7215 367.537L34.0376 371.087L30.2104 355.79L37.7215 367.537ZM38.1027 367.17L61.5186 344.607L29.9746 354.457L38.1027 367.17ZM1.14264 365.525L17.2691 387.244L5.08231 398.986L1.14264 365.525ZM5.26311 400.099L11.0823 429.173L16.3601 407.491L5.26311 400.099ZM16.8197 407.798L11.3924 430.093L47.2963 428.1L16.8197 407.798ZM48.396 428.056H76.4163L54.3049 393.474L48.396 428.056ZM77.4765 429.185L88.6589 439.142L87.0304 455.915L77.4765 429.185ZM87.5808 457.299L101.555 483.231L111.944 459.875L106.031 454.61L87.5808 457.299ZM105.525 454.159L89.1388 439.569L87.4668 456.791L105.525 454.159ZM106.701 454.512L112.165 459.377L114.857 453.324L106.701 454.512ZM115.465 453.235L112.572 459.739L125.95 471.651L128.854 470.235L119.56 452.639L115.465 453.235ZM119.303 452.152L117.481 448.702L115.714 452.674L119.303 452.152ZM120.105 452.559L129.321 470.008L163.407 453.393L163.909 446.176L120.105 452.559ZM164.434 446.099L163.945 453.13L176.245 447.135L175.732 444.453L164.434 446.099ZM176.246 444.378L176.728 446.9L184.313 443.203L176.246 444.378ZM185.644 443.131L176.829 447.428L183.189 480.698L183.766 480.678L185.644 443.131ZM183.74 481.198L183.288 481.214L183.645 483.084L183.74 481.198ZM184.057 485.239L184.26 481.18L218.627 479.975L227.269 527.216L220.964 532.325L199.196 536.87L192.846 531.216L184.057 485.239ZM183.536 485.275L182.763 481.232L161.942 481.962L160.519 502.432L181.732 521.32L183.536 485.275ZM182.229 521.763L183.947 487.429L192.209 530.649L182.229 521.763ZM181.699 521.985L160.474 503.086L158.883 525.977L168.069 543.369L180.761 540.719L181.699 521.985ZM181.286 540.609L182.196 522.428L192.369 531.486L193.621 538.034L181.286 540.609ZM180.734 541.255L168.321 543.846L179.542 565.09L180.734 541.255ZM178.926 565.035L167.793 543.957L159.234 545.744L159.22 545.746L157.49 546.012L157.392 547.43L178.926 565.035ZM156.892 547.131L156.964 546.093L155.382 546.336L156.892 547.131ZM154.609 545.93L157.001 545.562L158.355 526.088L135.537 482.888L101.942 484.066L117.075 526.19L154.609 545.93ZM117.335 526.913L153.747 546.063L125.76 550.365L117.335 526.913ZM116.395 525.833L101.837 485.309V518.176L116.395 525.833ZM101.837 518.763L116.655 526.556L125.237 550.445L107.365 553.193L101.837 550.668V518.763ZM101.318 517.903V485.555L92.7965 513.422L101.318 517.903ZM92.642 513.927L101.318 518.49V550.431L90.5374 545.506L86.8634 532.824L92.642 513.927ZM92.329 513.176L101.025 484.738L79.3802 506.366L92.329 513.176ZM78.834 506.973L58.7917 531.005L83.4348 542.262L86.322 532.82L78.834 506.973ZM86.5994 531.913L92.1745 513.681L79.3664 506.945L86.5994 531.913ZM86.586 533.732L83.911 542.479L89.9146 545.222L86.586 533.732ZM90.1051 545.879L83.7579 542.98L79.3164 557.505L92.8694 555.421L90.1051 545.879ZM93.015 555.924L79.445 558.01L100.99 583.453L93.015 555.924ZM101.318 582.72L93.5323 555.844L101.318 554.648V582.72ZM101.837 584.044V554.568L107.29 553.729L129.863 564.041L101.837 584.044ZM130.515 563.603L156.6 547.563L154.519 546.469L125.939 550.863L130.515 563.603ZM125.416 550.943L108.225 553.586L129.927 563.499L125.416 550.943ZM106.43 553.337L101.837 551.238V554.043L106.43 553.337ZM101.318 554.122L93.3866 555.342L90.7279 546.164L101.318 551.001V554.122ZM78.8463 557.267L59.2185 531.771L83.2817 542.763L78.8463 557.267ZM102.79 483.517L135.268 482.378L133.537 479.102L125.864 472.27L102.79 483.517ZM125.445 471.897L112.35 460.237L102.104 483.274L125.445 471.897ZM126.369 472.024L132.844 477.79L129.097 470.694L126.369 472.024ZM129.563 470.467L133.952 478.777L137.894 482.286L161.456 481.46L163.365 453.991L129.563 470.467ZM163.904 453.728L161.978 481.442L182.664 480.717L176.346 447.664L163.904 453.728ZM161.42 481.981L138.455 482.786L160.029 501.995L161.42 481.981ZM159.984 502.65L137.704 482.812L136.113 482.868L158.423 525.106L159.984 502.65ZM135.844 482.358L137.143 482.313L134.645 480.089L135.844 482.358ZM158.815 526.959L157.527 545.482L159.128 545.236L159.141 545.233L167.54 543.479L158.815 526.959ZM180.677 566.397L202.006 581.897L199.389 568.211L180.677 566.397ZM199.928 568.263L202.58 582.139L231.059 571.281L199.928 568.263ZM232.149 570.865L199.826 567.732L196.911 552.48L206.878 544.405L234.993 569.438L235.052 569.759L232.149 570.865ZM232.22 571.394L202.762 582.626L219.074 610.662L238.281 587.411L235.407 571.703L232.22 571.394ZM235.31 571.172L233.311 570.978L235.146 570.278L235.31 571.172ZM235.944 571.755L238.713 586.888L245.441 578.742L237.796 571.934L235.944 571.755ZM237.139 571.349L235.847 571.224L235.64 570.09L235.699 570.067L237.139 571.349ZM238.671 572.019L245.772 578.341L250.081 573.125L238.671 572.019ZM250.48 572.642L238.014 571.434L236.245 569.859L258.742 561.281L259.162 562.132L250.48 572.642ZM250.704 573.185L246.16 578.687L275.304 604.637L278.536 601.456L265.305 574.601L250.704 573.185ZM265.035 574.053L251.103 572.703L259.413 562.642L265.035 574.053ZM265.913 574.66L278.926 601.072L302.186 578.176L265.913 574.66ZM302.668 577.701L265.643 574.112L259.776 562.204L261.363 560.282L308.514 542.304L317.905 562.703L302.668 577.701ZM302.86 578.241L279.167 601.562L284.763 612.921L324.853 580.373L302.86 578.241ZM325.427 579.908L303.342 577.767L318.136 563.205L325.717 579.672L325.427 579.908ZM325.588 580.445L288.918 610.216L327.928 584.475L326.095 580.494L325.588 580.445ZM326.693 580.552L328.366 584.186L332.954 581.159L326.693 580.552ZM333.775 581.238L328.586 584.663L344.512 619.258L379.944 624.439L390.537 589.835L388.982 586.59L333.775 581.238ZM388.72 586.043L334.464 580.784L363.737 561.467L383.135 574.389L388.72 586.043ZM389.586 586.649L390.761 589.102L391.457 586.83L389.586 586.649ZM391.612 586.324L389.324 586.102L383.98 574.952L393.211 581.101L391.612 586.324ZM391.984 586.881L391.093 589.793L403.939 616.599L426.144 603.04L403.574 588.005L391.984 586.881ZM402.658 587.394L392.139 586.375L393.661 581.401L402.658 587.394ZM404.669 588.111L425.24 601.814L414.438 589.058L404.669 588.111ZM413.957 588.49L403.753 587.501L393.82 580.883L397.456 569.004L413.957 588.49ZM415.179 589.13L426.708 602.744L454.246 592.917L415.179 589.13ZM455.231 592.491L414.698 588.562L397.637 568.414L405.012 544.323L460.957 569.906L455.231 592.491ZM455.831 592.235L479.552 578.409L461.437 570.125L455.831 592.235ZM461.566 569.614L479.107 577.634L463.886 560.463L461.566 569.614ZM464.04 559.855L479.691 577.512L471.232 531.49L464.04 559.855ZM471.65 530.895L480.315 578.036L518.112 564.817L515.307 549.98L471.65 530.895ZM515.883 550.232L518.608 564.644L525.469 562.244L528.891 555.918L515.883 550.232ZM529.139 555.46L515.767 549.614L513.058 535.287L534.153 541.522L535.207 544.242L529.139 555.46ZM529.368 556.127L526.196 561.99L535.409 558.768L529.368 556.127ZM536.129 558.516L529.616 555.669L535.454 544.877L540.192 557.095L536.129 558.516ZM536.108 559.073L525.83 562.668L520.201 573.073L523.756 591.88L529 593.534L544.648 588.886L548.854 579.431L541.949 561.627L536.108 559.073ZM541.685 560.945L536.828 558.822L540.38 557.579L541.685 560.945ZM542.62 561.92L549.151 578.762L554.36 567.052L542.62 561.92ZM554.571 566.578L542.355 561.238L540.87 557.408L561.925 550.044L554.571 566.578ZM554.835 567.26L549.416 579.445L552.206 586.641L580.167 578.334L554.835 567.26ZM580.096 578.897L552.394 587.126L558.382 602.566L580.096 578.897ZM557.854 602.639L551.895 587.274L545.026 589.315L541.407 597.449L557.854 602.639ZM540.909 597.292L544.371 589.509L529.884 593.813L540.909 597.292ZM528.995 594.077L540.697 597.769L529.59 622.741L524.428 595.434L528.995 594.077ZM528.112 593.798L523.865 592.458L524.331 594.921L528.112 593.798ZM523.831 595.07L523.304 592.281L511.778 588.644L505.328 600.566L523.831 595.07ZM504.732 600.577L511.274 588.485L481.154 578.981L504.732 600.577ZM480.937 578.368L511.525 588.02L519.657 572.988L518.21 565.333L480.937 578.368ZM518.705 565.16L520.048 572.265L525.102 562.922L518.705 565.16ZM519.81 573.796L512.029 588.179L523.194 591.702L519.81 573.796ZM505.315 601.112L523.928 595.582L529.09 622.888L505.315 601.112ZM530.113 622.842L541.195 597.927L557.717 603.14L530.113 622.842ZM545.303 588.691L551.707 586.789L549.118 580.113L545.303 588.691ZM580.238 577.799L555.046 566.786L562.448 550.146L580.238 577.799ZM561.792 549.149L545.971 525.435L537.092 541.849L561.792 549.149ZM536.583 541.699L545.598 525.034L523.515 512.656L534.544 541.096L536.583 541.699ZM534.781 541.707L536.331 542.165L535.532 543.642L534.781 541.707ZM535.778 544.278L536.839 542.316L561.56 549.622L540.682 556.924L535.778 544.278ZM533.916 540.91L522.804 512.257L507.034 503.418L512.95 534.714L533.916 540.91ZM512.39 534.549L506.443 503.086L489.925 493.828L480.356 495.501L473.379 523.019L512.39 534.549ZM472.881 522.872L479.796 495.599L465.618 498.078L470.02 522.026L472.881 522.872ZM470.125 522.599L472.754 523.375L471.313 529.059L470.125 522.599ZM469.462 521.861L465.107 498.167L457.703 499.462L437.896 512.532L469.462 521.861ZM437.33 512.906L469.567 522.434L470.963 530.028L435.125 514.361L437.33 512.906ZM437.245 512.34L456.421 499.686L417.475 506.497L437.245 512.34ZM417.578 505.952L457.507 498.97L464.416 494.41L461.414 478.078L417.578 505.952ZM461.955 478.149L464.887 494.1L476.61 486.364L461.955 478.149ZM477.12 486.649L464.989 494.654L465.524 497.568L479.936 495.048L481.449 489.076L477.12 486.649ZM481.581 488.555L477.607 486.328L483.058 482.731L481.581 488.555ZM481.918 489.339L480.496 494.95L489.209 493.426L481.918 489.339ZM490.018 493.284L482.05 488.818L483.611 482.662L503.388 486.924L504.124 490.818L490.018 493.284ZM490.734 493.686L506.317 502.421L504.22 491.328L490.734 493.686ZM504.731 491.238L506.908 502.752L522.509 511.497L514.023 489.614L504.731 491.238ZM514.544 489.523L523.22 511.896L545.886 524.601L566.046 500.428L515.042 489.436L514.544 489.523ZM516.402 489.198L566.017 499.891L556.24 482.231L516.402 489.198ZM556.781 482.137L566.536 499.757L580.386 478.009L556.781 482.137ZM581.634 477.53L599.325 467.008L611.183 483.435L581.634 477.53ZM612.599 483.7L646.161 489.618L633.959 473.028L612.599 483.7ZM634.43 472.793L646.398 489.065L644.226 467.899L634.43 472.793ZM644.169 467.347L634.118 472.369L622.099 456.028L623.281 452.759L641.556 441.89L644.169 467.347ZM644.722 467.651L646.916 489.026L660.604 459.716L644.722 467.651ZM660.814 459.031L644.665 467.099L642.048 441.597L650.509 436.564L660.814 459.031ZM661.05 458.301L666.966 426.776L650.958 436.298L661.05 458.301ZM650.74 435.823L666.811 426.264L639.097 410.44L650.74 435.823ZM637.201 409.49L611.803 397.776L609.014 399.616L609.602 399.306C609.681 399.265 609.777 399.267 609.854 399.312C609.932 399.358 609.98 399.44 609.982 399.53L610.193 408.162L637.201 409.49ZM609.673 408.137L609.474 399.961L604.586 402.538L597.043 407.516L609.673 408.137ZM596.31 408L609.686 408.657L610.456 440.197L589.89 412.236L596.31 408ZM596.166 407.473L599.893 405.013L595.309 407.431L596.166 407.473ZM594.408 407.906L595.433 407.957L589.582 411.817L588.858 410.833L594.408 407.906ZM594.291 407.381L604.321 402.091L609.886 398.42L588.424 405.944L588.309 407.087L594.291 407.381ZM588.256 407.604L593.39 407.856L588.547 410.41L588.042 409.724L588.256 407.604ZM587.79 407.061L587.883 406.134L585.911 406.825L586.02 406.974L587.79 407.061ZM586.417 407.514L587.737 407.578L587.584 409.1L586.417 407.514ZM584.251 407.407L585.748 407.481L587.506 409.87L587.39 411.021L580.716 414.54L580.673 408.662L584.251 407.407ZM585.077 406.568L584.175 406.884L580.659 406.711L580.613 400.498L585.077 406.568ZM585.589 406.388L587.941 405.564L590.571 379.52L580.394 370.738L580.606 399.614L585.589 406.388ZM580.082 398.901L579.872 370.287L542.875 338.36L538.555 342.44L580.082 398.901ZM538.245 342.019L542.48 338.019L522.832 321.064L538.245 342.019ZM522.164 319.801L542.859 337.66L555.094 326.102L522.164 319.801ZM555.722 326.222L543.254 338.001L579.867 369.597L579.581 330.788L555.722 326.222ZM579.577 330.258L556.187 325.783L579.383 303.869L579.577 330.258ZM580.101 330.887L580.389 370.048L590.635 378.89L594.013 345.446L589.738 332.731L580.101 330.887ZM589.548 332.166L580.097 330.358L579.899 303.465L589.548 332.166ZM590.323 332.843L594.139 344.193L595.191 333.774L590.323 332.843ZM595.244 333.256L590.133 332.278L580.293 303.009L600.198 284.205L595.244 333.256ZM595.703 333.872L594.54 345.386L611.671 396.34L615.636 366.626L615.638 366.611L617.677 338.077L595.703 333.872ZM618.288 337.489L650.385 327.466L625.094 301.784L618.288 337.489ZM625.212 301.164L650.726 327.073L657.532 299.113L629.997 276.061L625.212 301.164ZM629.542 275.68L624.77 300.714L604.505 280.136L618.768 266.661L629.542 275.68ZM630.109 275.478L657.669 298.551L659.964 289.125L634.549 252.186L630.109 275.478ZM635.521 252.683L660.129 288.449L663.695 273.798L635.521 252.683ZM664.147 274.136L660.523 289.022L666.713 298.019L675.22 282.435L664.147 274.136ZM675.393 283.201L667.043 298.498L679.29 316.298L675.393 283.201ZM678.378 315.888L666.764 299.008L664.083 303.921L678.378 315.888ZM663.677 303.581L666.434 298.529L660.359 289.698L658.113 298.923L663.677 303.581ZM657.976 299.485L663.423 304.045L651.588 325.726L657.976 299.485ZM651.422 327.114L663.829 304.385L679.156 317.216L651.422 327.114ZM675.168 281.747L664.28 273.588L669.359 252.725L675.168 281.747ZM669.053 251.786L663.829 273.249L635.189 251.786H669.053ZM633.707 251.833L604.213 253.798L618.748 265.966L633.707 251.833ZM619.148 266.302L629.653 275.096L634.005 252.266L619.148 266.302ZM618.368 266.325L603.76 254.096L601.444 277.028L604.141 279.766L618.368 266.325ZM603.763 280.122L601.376 277.699L600.854 282.871L603.763 280.122ZM600.774 283.66L595.755 333.354L617.746 337.562L624.651 301.334L604.127 280.492L600.774 283.66ZM600.277 283.416L600.903 277.218L589.229 265.363L579.675 273.001L579.887 301.8L580.111 302.467L600.277 283.416ZM579.356 300.222L579.159 273.413L572.21 278.968L579.356 300.222ZM571.779 279.313L579.368 301.887L579.378 303.16L555.559 325.663L521.862 319.215L571.779 279.313ZM572.034 278.444L579.154 272.753L579.068 261.081L567.359 264.538L572.034 278.444ZM566.861 264.685L571.603 278.789L522.815 317.789L563.342 265.724L566.861 264.685ZM567.194 264.045L579.064 260.541L579.023 255L574.927 250.84L566.426 261.761L567.194 264.045ZM566.043 262.253L566.695 264.192L563.889 265.021L566.043 262.253ZM566.227 261.171L574.56 250.467L556.444 232.071L566.227 261.171ZM555.612 231.227L565.845 261.663L563.035 265.273L513.451 279.912L535.129 220.342L546.161 221.628L555.612 231.227ZM556.066 230.948L574.881 250.054L578.948 244.828L578.806 225.434L553.209 222.45L556.066 230.948ZM552.64 222.384L555.235 230.104L546.983 221.724L552.64 222.384ZM553.027 221.906L578.802 224.911L578.606 198.323L544.412 196.283L553.027 221.906ZM544.234 195.753L578.473 197.795L565.774 165.649L548.53 183.518L544.159 195.53L544.234 195.753ZM543.894 194.741L547.643 184.437L542.293 189.981L543.894 194.741ZM542.107 189.427L548.08 183.237L558.979 153.287L530.287 154.269L542.107 189.427ZM529.746 154.287L541.701 189.847L536.45 195.288L519.983 194.306L501.435 175.471L519.027 154.654L529.746 154.287ZM530.115 153.755L559.171 152.761L559.896 150.769L547.923 120.461L527.175 145.012L530.115 153.755ZM526.783 145.476L529.573 153.774L519.479 154.119L526.783 145.476ZM526.982 144.437L546.835 120.945L523.631 134.47L526.982 144.437ZM522.499 134.009L498.864 114.328L498.031 131.533L522.499 134.009ZM497.514 131.481L498.348 114.252L472.245 128.924L497.514 131.481ZM471.458 129.366L497.489 132L496.38 154.91L481.682 155.413L461.529 134.947L471.458 129.366ZM471.347 128.833L497.775 113.979L469.833 111.46L463.789 128.068L471.347 128.833ZM463.605 128.571L470.561 129.275L461.495 134.37L463.605 128.571ZM463.256 128.014L469.298 111.411L449.694 109.644L440.378 113.469L453.755 127.053L463.256 128.014ZM454.325 127.632L463.073 128.517L460.948 134.357L454.325 127.632ZM452.946 126.971L439.86 113.682L435.739 115.374L439.357 125.596L452.946 126.971ZM439.548 126.137L453.516 127.55L460.682 134.827L445.62 143.293L439.548 126.137ZM438.786 125.538L435.259 115.572L417.601 122.823L417.394 123.373L438.786 125.538ZM417.205 123.876L438.977 126.079L445.161 143.551L420.322 157.512L407.259 157.959L405.153 155.992L417.205 123.876ZM416.86 123.319L416.945 123.092L416.484 123.281L416.86 123.319ZM415.465 123.7L416.671 123.822L404.742 155.609L399.758 150.954L399.344 131.093L401.746 129.333L415.465 123.7ZM415.388 123.17L417.194 122.429L419.48 116.339L410.791 122.705L415.388 123.17ZM410.166 123.164L414.369 123.589L403.488 128.057L410.166 123.164ZM410.02 122.627L419.813 115.451L422.899 107.228L398.802 105.056L399.145 121.527L410.02 122.627ZM399.156 122.049L409.394 123.085L401.49 128.877L399.317 129.77L399.156 122.049ZM398.625 121.474L398.288 105.32L379.405 119.529L398.625 121.474ZM378.794 119.989L398.636 121.997L398.802 129.981L383.87 136.113L372.045 125.068L378.794 119.989ZM378.645 119.452L397.886 104.973L364.776 101.988L363.774 117.341L364.501 118.021L378.645 119.452ZM365.128 118.606L378.033 119.912L371.66 124.708L365.128 118.606ZM363.701 118.462L364.275 118.52L371.239 125.025L362.861 131.33L363.701 118.462ZM363.24 117.553L363.218 117.891L329.849 114.515L330.282 111.053C333.5 107.208 336.671 103.405 339.721 99.7293L344.632 100.172L363.24 117.553ZM363.283 116.884L364.259 101.942L345.474 100.248L363.283 116.884ZM344.856 99.6712L364.292 101.424L366.616 65.8194C366.498 66.0137 366.363 66.2263 366.212 66.4563C365.574 67.4268 364.642 68.7247 363.46 70.3C361.094 73.4516 357.717 77.7264 353.666 82.7378C350.198 87.0287 346.235 91.861 341.989 96.9928L344.856 99.6712ZM341.609 96.6379C345.846 91.5163 349.801 86.694 353.262 82.4116C357.312 77.4015 360.685 73.1324 363.045 69.9884C364.225 68.416 365.149 67.1282 365.778 66.1714C366.092 65.6926 366.33 65.3011 366.488 65.0007C366.496 64.9852 366.504 64.97 366.511 64.9551L334.175 79.9285L333.081 88.6729L341.609 96.6379ZM333.002 89.3087L341.277 97.0384C340.689 97.7495 340.095 98.4663 339.496 99.188L331.852 98.4988L333.002 89.3087ZM332.613 88.2355L333.62 80.1856L327.185 83.1654L332.613 88.2355ZM326.677 83.4008L332.534 88.8713L331.335 98.4522L311.442 96.6587L318.274 87.2916L326.677 83.4008ZM326.776 82.783L333.696 79.5785L335.724 63.3675L323.675 79.8869L326.776 82.783ZM323.367 80.3093L326.267 83.0184L318.904 86.428L323.367 80.3093ZM323.293 79.53L335.643 62.5978L299.509 57.3139L323.293 79.53ZM298.607 57.1821L322.985 79.9524L317.934 86.8771L299.195 95.5546L297.492 95.401L287.001 84.9187L277.383 65.1479L292.335 56.2649L298.607 57.1821ZM298.843 56.6921L335.414 62.0398L316.632 41.8287L296.033 54.0674L298.843 56.6921ZM295.568 54.3435L297.942 56.5603L293.043 55.844L295.568 54.3435ZM295.638 53.6985L316.271 41.4398L302.57 26.6963L288.363 22.9606L274.141 33.619L295.638 53.6985ZM273.719 33.9351L295.173 53.9746L292.228 55.7247L271.311 52.6661L265.277 40.2622L273.719 33.9351ZM273.756 33.2591L287.723 22.7922L273.276 18.9935L267.518 27.4326L273.756 33.2591ZM267.222 27.8663L273.334 33.5753L265.046 39.7869L262.566 34.69L267.222 27.8663ZM267.134 27.0742L272.744 18.8534L252.687 13.5793L267.134 27.0742ZM252.772 13.0651L273.054 18.3984L282.009 5.27454L252.772 13.0651ZM282.648 5.25875L273.587 18.5385L288.253 22.3949L294.336 17.8359L282.648 5.25875ZM294.691 18.2182L288.893 22.5634L301.91 25.9862L294.691 18.2182ZM302.848 26.2327L295.109 17.9052L317.469 1.14784L329.515 33.2451L302.848 26.2327ZM303.507 26.9429L316.727 41.1686L329.269 33.717L303.507 26.9429ZM329.756 34.0312L317.089 41.5575L335.655 61.5364L329.756 34.0312ZM336.333 62.6785L334.251 79.3215L365.934 64.6503L336.333 62.6785ZM367.205 64.7715L397.569 70.8397L398.271 104.487L364.81 101.47L367.205 64.7715ZM399.275 104.577L417.436 90.9111L425.825 99.4303L423.088 106.724L399.275 104.577ZM423.435 107.277L420.577 114.891L430.143 107.881L423.435 107.277ZM430.776 107.417L423.624 106.773L426.227 99.8379L431.633 105.328L432.044 106.489L430.776 107.417ZM430.925 107.952L420.244 115.778L417.849 122.16L435.085 115.082L432.616 108.104L430.925 107.952ZM432.425 107.566L431.558 107.488L432.225 107L432.425 107.566ZM433.184 108.156L435.566 114.884L439.466 113.283L434.538 108.278L433.184 108.156ZM433.975 107.706L432.994 107.617L432.662 106.679L432.837 106.551L433.975 107.706ZM435.337 108.35L439.985 113.07L448.573 109.543L435.337 108.35ZM449.614 109.116L434.774 107.778L433.26 106.241L459.396 87.0893L473.456 99.3253L449.614 109.116ZM450.734 109.217L469.481 110.907L473.498 99.8688L450.734 109.217ZM474.081 99.7862L497.492 113.432L470.016 110.955L474.081 99.7862ZM473.328 97.7425L469.52 79.6707L465.17 82.858L473.328 97.7425ZM464.919 82.399L469.403 79.1133L464.437 55.5427L454.357 63.1275L464.919 82.399ZM453.938 63.4428L464.496 82.7084L459.424 86.4255L442.718 71.8863L453.938 63.4428ZM454.105 62.6677L464.318 54.9821L462.934 48.4117L461.378 46.9125L448.197 51.8881L454.105 62.6677ZM447.707 52.0732L453.686 62.983L442.318 71.5379L438.194 67.9492L443.565 53.6367L447.707 52.0732ZM447.946 51.4285L460.965 46.5139L450.149 36.0929L445.838 47.582L447.946 51.4285ZM445.597 48.2229L447.455 51.6135L443.808 52.9904L445.597 48.2229ZM445.509 46.9817L449.742 35.7007L445.458 31.5723L439.681 36.3489L445.509 46.9817ZM439.274 36.6857L445.268 47.6226L443.162 53.2342L427.904 58.9939L420.3 52.3763L439.274 36.6857ZM439.427 35.8855L445.081 31.2099L442.033 28.272L436.712 30.9303L439.427 35.8855ZM436.247 31.1624L439.02 36.2222L419.903 52.0309L410.631 43.9609L436.247 31.1624ZM436.462 30.4749L441.636 27.89L427.671 14.4344L436.462 30.4749ZM427.528 13.5757L442.129 27.6439L455.312 21.0574C455.407 21.0097 455.522 21.0253 455.601 21.0967C455.681 21.1681 455.708 21.2808 455.671 21.3807L455.087 22.9358L456.931 21.4106L427.528 13.5757ZM457.32 21.763L454.721 23.9123L450.348 35.5636L461.502 46.3111L462.419 45.9651L457.32 21.763ZM462.527 46.4789L461.916 46.7096L462.744 47.5074L462.527 46.4789ZM463.409 48.1486L463.018 46.2935L488.796 36.5628L467.79 52.3698L463.409 48.1486ZM463.6 49.0528L464.776 54.6376L467.37 52.6858L463.6 49.0528ZM467.748 53.0505L464.894 55.1982L469.862 78.7767L483.827 68.5433L467.748 53.0505ZM483.725 69.2614L474 98.4158L469.979 79.334L483.725 69.2614ZM484.063 68.0497L490.023 36.2888L468.168 52.7345L484.063 68.0497ZM489.713 35.6617L462.91 45.7796L457.843 21.7291L489.713 35.6617ZM449.941 35.1714L453.917 24.577L445.86 31.2394L449.941 35.1714ZM445.484 30.877L454.283 23.6005L454.953 21.817L442.525 28.0259L445.484 30.877ZM426.629 13.6122L435.998 30.707L410.78 43.3061L426.629 13.6122ZM410.136 44.5898L398.538 69.6987L414.385 56.5945L410.136 44.5898ZM414.569 57.1155L399.19 69.8329L416.727 63.213L414.569 57.1155ZM417.213 63.0297L414.995 56.7633L419.895 52.7115L427.353 59.202L417.213 63.0297ZM416.9 63.7023L398.289 70.728L417.487 90.2232L424.436 84.9938L416.9 63.7023ZM424.871 84.6667L417.386 63.519L427.797 59.5889L437.581 68.1042L433.922 77.8557L424.871 84.6667ZM424.618 85.5067L417.854 90.5963L426.026 98.8947L427.74 94.3283L424.618 85.5067ZM428.023 93.5734L425.052 85.1796L433.582 78.7609L428.023 93.5734ZM428.009 95.0885L426.428 99.3023L431.224 104.173L428.009 95.0885ZM432.084 105.046L428.292 94.3335L434.355 78.1796L442.294 72.2053L458.995 86.74L432.892 105.867L432.084 105.046ZM441.894 71.857L437.999 68.4679L434.694 77.2744L441.894 71.857ZM437.776 67.5856L442.919 53.8804L428.349 59.3808L437.776 67.5856ZM417.068 90.538L398.786 104.296L398.097 71.2731L417.068 90.538ZM419.498 52.3661L414.811 56.2423L410.742 44.7454L419.498 52.3661ZM459.825 86.7748L464.748 83.1674L473.017 98.2556L459.825 86.7748ZM316.664 1.10285L294.754 17.5229L283.155 5.04202L316.664 1.10285ZM252.018 14.1933V49.2285L261.968 34.6463L252.018 14.1933ZM262.305 34.1525L266.838 27.5079L252.604 14.2116L262.305 34.1525ZM262.229 35.1838L252.854 48.9237L264.623 40.1039L262.229 35.1838ZM264.854 40.5791L252.413 49.9027L270.69 52.5753L264.854 40.5791ZM270.964 53.1399L252.496 50.4392L270.628 68.5578L276.708 64.9457L270.964 53.1399ZM277.155 64.6796L291.519 56.1456L271.586 53.2308L277.155 64.6796ZM276.936 65.414L271.007 68.9364L285.878 83.7965L276.936 65.414ZM270.168 68.8314L252.066 50.7441L254.044 78.411L270.168 68.8314ZM287.696 86.3463L291.854 94.8927L296.685 95.3283L287.696 86.3463ZM297.258 95.901L292.119 95.4377L293.466 98.2073L297.634 96.2771L297.258 95.901ZM298.026 96.6679L293.693 98.6741L299.927 111.487L299.98 111.492L305.411 104.047L298.026 96.6679ZM305.72 103.623L298.527 96.4356L299.287 96.0839L310.483 97.0933L305.72 103.623ZM305.782 104.419L300.579 111.553L314.313 112.943L305.782 104.419ZM315.13 113.025L306.092 103.994L311.086 97.1477L331.271 98.9675L329.786 110.837C328.844 111.962 327.898 113.091 326.95 114.221L315.13 113.025ZM314.894 113.523L300.224 112.039L300.207 112.063L310.66 133.55C314.268 129.286 318.008 124.857 321.767 120.391L314.894 113.523ZM322.102 119.992L315.711 113.606L326.547 114.702C325.554 115.886 324.559 117.07 323.564 118.254C323.076 118.834 322.589 119.413 322.102 119.992ZM322.135 120.759C318.334 125.275 314.553 129.753 310.908 134.06L323.613 160.177L327.832 126.452L322.135 120.759ZM327.914 125.8L322.47 120.36C322.967 119.77 323.464 119.179 323.961 118.588C325.032 117.314 326.103 116.039 327.171 114.765L329.268 114.978L327.914 125.8ZM328.297 126.916L324.096 160.501L345.664 144.27L328.297 126.916ZM346.083 143.955L328.379 126.264L329.784 115.03L363.184 118.41L362.314 131.741L346.083 143.955ZM346.035 144.641L325.533 160.069L351.007 149.608L346.035 144.641ZM351.527 149.394L346.454 144.325L362.269 132.424L361.427 145.329L351.527 149.394ZM351.404 150.006L325.284 160.732L360.199 158.794L351.404 150.006ZM361.386 158.908L363.476 159.458L399.391 158.229L399.244 151.183L387.235 139.966L361.386 158.908ZM387.661 139.654L399.229 150.459L398.833 131.468L387.661 139.654ZM398.82 130.834L387.275 139.294L384.287 136.503L398.814 130.537L398.82 130.834ZM399.331 130.459L399.749 130.154L399.328 130.326L399.331 130.459ZM383.759 136.719L386.849 139.606L361.088 158.483L361.924 145.686L383.759 136.719ZM383.342 136.33L371.624 125.385L362.816 132.013L361.961 145.11L383.342 136.33ZM361.389 145.906L351.925 149.792L360.572 158.432L361.389 145.906ZM399.774 151.678L399.91 158.211L403.816 158.077L404.545 156.134L399.774 151.678ZM404.955 156.518L404.377 158.058L406.525 157.984L404.955 156.518ZM407.062 158.485L404.18 158.584L400.374 168.724L411.393 162.531L407.062 158.485ZM411.791 162.903L400.435 169.286L439.542 188.824L411.791 162.903ZM441.39 189.618L461.899 190.841L451.567 161.651L441.39 189.618ZM451.846 160.884L462.461 190.875L486.525 192.31L495.057 182.213L495.633 170.319L481.473 155.939L453.295 156.903L451.846 160.884ZM452.736 156.922L451.574 160.114L450.472 157L452.736 156.922ZM453.486 156.377L480.978 155.437L461.154 135.306L453.486 156.377ZM460.528 135.509L452.927 156.397L450.29 156.487L445.796 143.789L460.528 135.509ZM445.337 144.048L421.45 157.474L449.746 156.505L445.337 144.048ZM449.928 157.018L451.295 160.881L440.917 189.398L412.266 162.636L420.466 158.027L449.928 157.018ZM419.338 158.065L411.868 162.264L407.795 158.46L419.338 158.065ZM482.177 155.915L495.668 169.614L496.354 155.43L482.177 155.915ZM496.875 155.412L496.163 170.117L501.069 175.099L518.327 154.678L496.875 155.412ZM518.779 154.143L526.59 144.901L523.125 134.594L498.006 132.052L496.9 154.892L518.779 154.143ZM500.733 175.497L496.129 170.822L495.609 181.561L500.733 175.497ZM495.016 183.066L487.171 192.349L494.545 192.789L495.016 183.066ZM495.063 192.82L495.567 182.414L501.099 175.869L519.209 194.26L495.063 192.82ZM494.52 193.307L486.753 192.844L470.339 212.267L493.472 214.963L494.52 193.307ZM493.988 215.024L495.038 193.338L519.753 194.812L528.418 203.611L515.037 217.477L493.988 215.024ZM493.446 215.483L470.418 212.798L492.233 240.541L493.446 215.483ZM492.776 241.293L512.988 279.667L534.599 220.28L515.232 218.023L492.776 241.293ZM514.584 217.947L493.963 215.543L492.751 240.571L514.584 217.947ZM515.685 217.553L534.782 219.779L537.361 212.692L528.783 203.981L515.685 217.553ZM529.143 203.608L537.557 212.152L543.355 196.22L536.658 195.821L529.143 203.608ZM535.976 195.78L520.527 194.858L528.779 203.238L535.976 195.78ZM537.132 195.329L541.887 190.402L543.609 195.523L543.54 195.711L537.132 195.329ZM543.874 196.312L552.457 221.84L546.402 221.134L537.961 212.562L543.874 196.312ZM537.764 213.102L535.312 219.841L545.579 221.038L537.764 213.102ZM513.335 280.487L521.399 318.764L562.488 265.976L513.335 280.487ZM521.52 320.155L537.865 342.378L521.52 357.82V320.155ZM521.407 359.068L513.34 403.403L554.884 405.444L521.407 359.068ZM555.273 405.983L513.484 403.929L526.345 427.16L561.629 414.789L555.273 405.983ZM562.14 414.61L555.936 406.016L580.143 407.205L580.151 408.295L562.14 414.61ZM561.946 415.227L526.6 427.62L533.224 439.586L566.762 421.899L561.946 415.227ZM567.226 421.655L562.457 415.048L580.155 408.843L580.199 414.813L567.226 421.655ZM567.069 422.324L533.475 440.04L537.044 446.486L569.195 425.27L567.069 422.324ZM569.629 424.984L567.532 422.079L580.204 415.397L580.223 417.993L569.629 424.984ZM569.499 425.691L537.296 446.941L556.515 481.656L580.66 477.434L580.39 440.778L569.499 425.691ZM580.384 439.882L569.933 425.405L580.227 418.612L580.384 439.882ZM580.915 441.505L581.145 472.85L583.894 445.632L580.915 441.505ZM583.973 444.854L580.908 440.609L580.744 418.271L587.08 414.09L583.973 444.854ZM584.352 446.266L581.263 476.848L594.865 460.83L584.352 446.266ZM595.211 460.423L584.43 445.488L587.639 413.721L589.456 412.522L610.478 441.103L610.51 442.406L595.211 460.423ZM595.178 461.263L582.127 476.633L599.02 466.586L595.178 461.263ZM599.468 466.319L595.524 460.856L610.529 443.185L610.927 459.503L599.468 466.319ZM599.772 466.742L611.5 482.988L610.942 460.098L599.772 466.742ZM611.453 459.794L612.006 482.431L621.517 456.112L620.338 454.509L611.453 459.794ZM620.786 454.243L621.729 455.525L622.578 453.177L620.786 454.243ZM622.856 452.408L620.477 453.823L611.667 441.844L637.792 411.078L622.856 452.408ZM623.559 451.99L641.498 441.32L638.383 410.971L623.559 451.99ZM637.986 410.048L610.206 408.683L610.993 440.927L611.351 441.415L637.986 410.048ZM611.322 442.251L620.029 454.089L611.439 459.199L611.033 442.591L611.322 442.251ZM638.943 411.349L641.989 441.028L650.291 436.09L638.943 411.349ZM621.887 456.615L633.647 472.604L612.245 483.297L621.887 456.615ZM589.148 412.103L588.394 411.078L587.878 411.35L587.706 413.055L589.148 412.103ZM587.147 413.424L587.327 411.64L580.721 415.124L580.739 417.652L587.147 413.424ZM587.941 410.73L588.083 410.655L587.965 410.494L587.941 410.73ZM536.862 447.228L555.974 481.751L515.052 488.907L514.237 488.731L506.031 467.572L536.862 447.228ZM536.609 446.772L533.016 440.282L501.827 456.73L505.84 467.076L536.609 446.772ZM505.396 467.369L501.365 456.974L498.536 458.466L500.793 470.406L505.396 467.369ZM500.324 470.716L498.056 458.719L488.389 463.818L483.89 481.56L500.324 470.716ZM483.247 481.984L487.771 464.144L462.352 477.549L483.17 482.036L483.247 481.984ZM482.563 482.436L477.098 486.042L463.231 478.269L482.563 482.436ZM461.427 477.455L494.299 438.448L512.783 403.561L521.001 358.399V319.391L512.785 280.395L492.24 241.39L469.644 212.653L440.887 190.076L399.789 169.543L363.417 159.979L323.791 161.335L280.637 169.548L247.772 183.916L219.017 204.44L188.198 239.341L169.71 274.236L159.44 311.177V354.288L167.66 399.461L186.147 442.564L219.013 479.51L255.984 504.139L297.069 516.455L358.712 522.614L416.232 506.193L461.427 477.455ZM415.192 507.029L359.483 522.934L382.589 533.499L415.192 507.029ZM382.139 533.864L359.685 523.597L373.985 540.484L382.139 533.864ZM374.321 540.88L382.666 534.105L395.422 539.938L381.373 549.208L374.321 540.88ZM373.582 540.811L359.842 524.585L369.289 544.297L373.582 540.811ZM369.52 544.778L373.918 541.207L380.937 549.496L373.98 554.086L369.52 544.778ZM368.875 544.633L358.659 523.317L337.972 543.68L355.591 555.417L368.875 544.633ZM356.044 555.719L369.105 545.114L373.543 554.375L363.739 560.845L356.044 555.719ZM355.17 555.76L337.594 544.052L318.529 562.818L326.133 579.334L355.17 555.76ZM326.357 579.821L355.622 556.061L363.268 561.155L333.643 580.704L326.442 580.006L326.357 579.821ZM318.299 562.316L337.153 543.758L325.34 535.889L309 542.118L318.299 562.316ZM308.783 541.646L324.809 535.535L297.637 517.434L308.783 541.646ZM298.029 517.072L325.405 535.308L357.617 523.026L298.029 517.072ZM357.672 523.561L325.935 535.662L337.531 543.386L357.672 523.561ZM295.964 516.665L255.929 504.664L238.417 518.852L242.808 527.764L295.964 516.665ZM242.283 527.873L238.003 519.187L227.835 527.426L228.445 530.763L242.283 527.873ZM228.539 531.273L242.52 528.354L258.512 560.813L235.809 569.47L235.471 569.169L228.539 531.273ZM227.937 530.869L227.375 527.798L222.074 532.093L227.937 530.869ZM221.193 532.807L228.031 531.38L234.841 568.608L207.287 544.074L221.193 532.807ZM220.082 533.039L199.678 537.299L206.894 543.724L220.082 533.039ZM206.485 544.055L199.046 537.431L194.226 538.438L196.8 551.902L206.485 544.055ZM196.343 552.273L193.718 538.544L181.259 541.145L180.042 565.479L196.343 552.273ZM180.409 565.849L199.288 567.68L196.453 552.851L180.409 565.849ZM194.129 537.928L198.564 537.002L193.006 532.053L194.129 537.928ZM258.999 560.628L243.044 528.245L296.347 517.115L261.05 559.846L258.999 560.628ZM259.23 561.095L259.524 561.693L260.38 560.657L259.23 561.095ZM262.033 559.471L308.297 541.831L296.955 517.194L262.033 559.471ZM227.728 526.844L237.768 518.71L219.432 481.493L227.728 526.844ZM219.501 480.459L238.182 518.375L255.435 504.396L219.501 480.459ZM218.281 479.468L184.286 480.66L186.153 443.352L218.281 479.468ZM184.834 440.819L172.399 424.251L168.114 401.835L184.834 440.819ZM167.125 399.899L156.626 403.237L166.023 415.756L167.125 399.899ZM167.53 401.547L166.499 416.391L171.69 423.307L167.53 401.547ZM171.912 424.467L175.635 443.943L164.471 445.57L166.444 417.182L171.912 424.467ZM172.62 425.411L176.149 443.868L185.456 442.512L172.62 425.411ZM167.028 398.888L146.954 382.439L159.076 355.185L167.028 398.888ZM158.921 353.053V311.233L152.393 303.078L143.657 317.627L158.921 353.053ZM143.404 317.04L152.047 302.646L127.786 272.343H124.145L143.404 317.04ZM123.579 272.343L143.075 317.588L123.461 350.253L116.285 349.49L99.9921 327.783L105.375 272.343H123.579ZM116.71 350.057L120.526 355.141L123.167 350.743L116.71 350.057ZM124.03 350.313L143.328 318.175L158.767 354.006L124.03 350.313ZM123.921 271.824H127.37L119.901 262.494L123.921 271.824ZM128.451 272.343L152.332 302.172L160.3 288.903L161.326 272.343H128.451ZM161.846 272.343L160.879 287.937L169.112 274.227L166 272.343H161.846ZM167.002 272.343H169.467C169.611 272.343 169.727 272.227 169.727 272.083C169.727 271.94 169.611 271.824 169.467 271.824H166.145L162.033 269.333L163.746 241.706L187.529 239.495L169.367 273.775L167.002 272.343ZM168.705 275.913L160.81 289.061L159.593 308.691L168.705 275.913ZM158.964 310.455L160.23 290.027L152.678 302.604L158.964 310.455ZM188.808 237.866L218.434 204.315L205.549 197.092L188.808 237.866ZM205.747 196.608L216.715 202.756L206.748 194.171L205.747 196.608ZM206.333 193.814L205.291 196.352L183.288 184.019L182.309 173.119L206.333 193.814ZM206.956 193.664L218.857 203.916L247.115 183.747L216.352 170.779L206.956 193.664ZM215.873 170.578L206.541 193.307L182.242 172.376L180.751 155.772L215.873 170.578ZM216.549 170.299L247.012 183.141L225.788 147.795L216.549 170.299ZM226.034 147.197L246.999 182.112L234 127.794L226.034 147.197ZM234.337 126.973L247.765 183.082L269.319 153.53L246.464 120.544L234.75 125.968L234.337 126.973ZM235.04 125.262L246.165 120.111L240.507 111.945L235.04 125.262ZM240.742 111.373L246.643 119.889L270.165 108.997L242.852 106.233L240.742 111.373ZM242.314 106.179L240.39 110.865L236.754 105.616L242.314 106.179ZM242.519 105.678L248.344 91.4911L225.543 89.4355L236.365 105.055L242.519 105.678ZM235.686 104.987L225.588 90.4116L228.912 104.301L235.686 104.987ZM229.04 104.836L234.039 125.726L234.347 125.583L240.155 111.437L236.075 105.548L229.04 104.836ZM228.365 104.246L215.525 102.947L224.894 89.7437L228.365 104.246ZM271.178 109.1L246.943 120.322L269.643 153.087L291.331 123.351L279.964 109.989L271.178 109.1ZM280.709 110.064L291.645 122.92L299.604 112.009L299.586 111.974L280.709 110.064ZM299.32 111.426L280.224 109.493L277.428 106.206L293.222 98.8922L299.32 111.426ZM292.995 98.4254L291.515 95.3833L266.286 93.1087L277.079 105.796L292.995 98.4254ZM276.939 106.432L279.478 109.418L272.103 108.672L276.939 106.432ZM299.861 112.538L291.991 123.327L305.684 139.423C307.188 137.649 308.728 135.832 310.293 133.983L299.861 112.538ZM310.541 134.493C309.008 136.304 307.499 138.085 306.024 139.823L322.633 159.348L310.541 134.493ZM323.276 160.905L305.684 140.225C301.533 145.118 297.658 149.674 294.258 153.664C290.208 158.418 286.832 162.369 284.47 165.131C283.288 166.513 282.36 167.597 281.727 168.336L281.239 168.906L323.276 160.905ZM280.582 168.875L281.333 167.998C281.966 167.259 282.894 166.175 284.075 164.794C286.438 162.032 289.813 158.081 293.863 153.328C297.278 149.32 301.172 144.742 305.343 139.824L291.677 123.758L269.956 153.538L280.582 168.875ZM269.632 153.982L248.418 183.067L280.167 169.188L269.632 153.982ZM348.162 159.982L360.767 159.282L361.67 159.519L348.162 159.982ZM233.682 126.463L233.794 126.931L225.701 146.642L217.957 133.745L233.682 126.463ZM183.344 184.645L205.092 196.836L188.146 238.111L183.344 184.645ZM182.796 184.338L167.822 175.945L165.028 221.024L187.671 238.621L182.796 184.338ZM187.306 238.995L164.989 221.651L163.778 241.182L187.306 238.995ZM163.223 241.754L122.711 245.52L161.532 269.03L163.223 241.754ZM161.997 269.918L165.143 271.824H161.878L161.997 269.918ZM364.207 561.157L382.696 573.473L373.77 554.847L364.207 561.157ZM374.207 554.559L383.541 574.036L393.369 580.583L397.058 568.533L381.275 549.895L374.207 554.559ZM381.711 549.607L397.238 567.944L404.536 544.106L395.978 540.192L381.711 549.607ZM396.489 539.855L404.689 543.605L408.203 532.126L396.489 539.855ZM408.883 531.677L405.165 543.823L461.087 569.394L463.47 559.994L427.488 519.4L408.883 531.677ZM427.14 519.008L409.121 530.898L416.452 506.95L427.14 519.008ZM427.925 519.111L463.624 559.385L470.927 530.579L434.608 514.701L427.925 519.111ZM434.042 514.454L427.578 518.719L417.316 507.142L434.042 514.454ZM434.558 514.113L436.679 512.714L420.25 507.858L434.558 514.113ZM415.842 507.17L383.115 533.74L395.932 539.601L408.441 531.347L415.842 507.17ZM365.223 159.917L399.615 168.961L399.402 158.747L365.223 159.917ZM399.921 158.73L400.113 167.944L403.618 158.603L399.921 158.73ZM469.922 211.956L486.106 192.805L462.649 191.406L469.922 211.956ZM462.087 191.372L441.84 190.164L469.286 211.712L462.087 191.372ZM513.036 404.192L495.055 438.13L525.848 427.334L513.036 404.192ZM526.103 427.794L494.855 438.75L501.638 456.243L532.765 439.828L526.103 427.794ZM501.176 456.487L495.296 441.323L498.435 457.932L501.176 456.487ZM497.955 458.186L494.479 439.796L488.56 463.14L497.955 458.186ZM487.942 463.466L493.987 439.624L462.655 476.802L487.942 463.466ZM483.88 482.189L500.428 471.269L503.283 486.37L483.88 482.189ZM503.834 486.489L500.898 470.959L505.588 467.864L513.63 488.6L503.834 486.489ZM503.938 487.042L504.635 490.728L513.692 489.145L503.938 487.042ZM580.669 408.113L582.876 407.34L580.662 407.231L580.669 408.113ZM580.139 406.685L555.548 405.477L521.604 358.455L538.175 342.799L580.089 399.786L580.139 406.685ZM329.332 114.463L329.667 111.788C328.971 112.619 328.273 113.451 327.574 114.285L329.332 114.463ZM330.401 110.103C333.362 106.564 336.278 103.065 339.094 99.6728L331.788 99.0141L330.401 110.103ZM310.839 96.6044L317.304 87.7407L300.229 95.6478L310.839 96.6044ZM298.253 95.9907L298.136 96.0448L298.065 95.9738L298.253 95.9907ZM340.123 99.2445C340.638 98.6236 341.15 98.0064 341.657 97.3933L344.015 99.5953L340.123 99.2445ZM548.469 120.43L568.05 128.363L560.163 150.034L548.469 120.43ZM560.183 151.497L559.73 152.742L560.662 152.71L560.183 151.497ZM561.213 152.691L560.451 150.762L568.531 128.558L591.765 137.969L578.116 152.113L561.213 152.691ZM560.865 153.222L559.539 153.268L548.967 182.318L565.565 165.119L560.865 153.222ZM565.96 164.709L561.415 153.203L577.598 152.65L565.96 164.709ZM566.17 165.239L578.847 197.329L594.374 152.076L578.344 152.624L566.17 165.239ZM578.862 152.087L594.554 151.55L598.305 140.619L592.283 138.179L578.862 152.087ZM592.672 137.777L598.474 140.127L602.926 127.15L592.672 137.777ZM603.647 126.65L598.956 140.322L623.261 150.168L603.647 126.65ZM622.895 150.58L598.787 140.814L595.11 151.531L622.895 150.58ZM594.929 152.057L579.473 197.103L601.303 175.291L601.31 175.283L623.514 151.078L594.929 152.057ZM579.133 199.364L579.321 224.972L590.684 226.296L579.133 199.364ZM590.92 226.846L579.325 225.494L579.462 244.168L591.672 228.482L590.972 226.967L590.969 226.961L590.92 226.846ZM592.031 228.021L592.777 227.063L591.52 226.916L592.031 228.021ZM591.917 229.013L579.469 245.005L579.541 254.785L583.824 259.135L603.19 253.418L591.917 229.013ZM602.355 254.206L584.237 259.555L589.27 264.666L602.355 254.206ZM589.636 265.038L600.971 276.547L603.231 254.17L589.636 265.038ZM588.863 264.992L583.673 259.721L579.586 260.928L579.67 272.34L588.863 264.992ZM579.582 260.388L583.26 259.302L579.546 255.531L579.582 260.388ZM579.018 254.254L578.955 245.665L575.248 250.427L579.018 254.254ZM603.194 126.126L592.153 137.567L568.709 128.07L578.962 99.8944L603.194 126.126ZM578.35 100.06L568.227 127.875L548.557 119.906L578.35 100.06ZM611.232 396.665L594.414 346.639L591.115 379.304L611.232 396.665ZM591.051 379.934L588.482 405.374L611.271 397.384L591.051 379.934ZM465.013 497.657L464.518 494.965L458.789 498.745L465.013 497.657ZM471.539 530.28L515.191 549.363L512.499 535.122L473.252 523.523L471.539 530.28ZM425.463 604.063L408.115 625.312L404.164 617.069L425.463 604.063ZM403.494 616.87L390.868 590.526L380.463 624.515L388.944 625.755L403.494 616.87ZM389.747 625.873L403.719 617.341L407.752 625.756L405.747 628.213L389.747 625.873ZM388.251 626.179L380.31 625.017L378.047 632.409L388.251 626.179ZM377.818 633.157L389.054 626.296L405.364 628.681L376.956 663.477L369.908 658.995L377.818 633.157ZM377.379 632.817L379.79 624.941L344.695 619.809L352.72 647.875L377.379 632.817ZM353.024 648.874L362.848 680.287L369.297 659.221L353.024 648.874ZM369.454 658.707L377.151 633.565L353.055 648.279L369.454 658.707ZM369.751 659.51L363.486 679.977L376.626 663.882L369.751 659.51ZM377.067 664.162L363.457 680.833L397.069 676.881L377.067 664.162ZM398.432 676.623L428.314 668.661L418.227 647.613L398.432 676.623ZM417.968 647.072L397.751 676.7L377.397 663.758L405.963 628.769L409.439 629.277L417.968 647.072ZM418.565 647.118L428.424 667.689V632.669L418.565 647.118ZM428.401 631.525L426.414 603.719L408.363 625.829L409.788 628.803L428.401 631.525ZM410.058 629.367L418.306 646.577L428.235 632.025L410.058 629.367ZM409.169 628.713L408 626.273L406.346 628.3L409.169 628.713ZM343.916 619.204L328.148 584.952L285.396 613.162L315.552 617.18L315.568 617.182L343.916 619.204ZM283.854 612.25L278.778 601.946L275.692 604.983L283.854 612.25ZM274.933 605.002L245.829 579.087L238.835 587.555L243.676 614.021L266.305 613.495L274.933 605.002ZM267.062 613.477L275.322 605.347L284.01 613.083L267.062 613.477ZM265.765 614.026L243.771 614.538L245.961 626.508L256.972 622.681L265.765 614.026ZM258.116 622.283L266.522 614.009L283.027 613.625L258.116 622.283ZM256.11 623.53L246.055 627.025L247.048 632.45L256.11 623.53ZM247.161 633.067L257.253 623.133L284.129 613.792L270.045 639.928L253.937 670.108L247.161 633.067ZM246.601 632.89L245.559 627.197L231.532 632.072L237.322 642.023L246.601 632.89ZM237.591 642.486L246.713 633.507L253.293 669.473L237.591 642.486ZM236.94 642.399L231.032 632.246L218.579 636.574L230.848 648.396L236.94 642.399ZM231.221 648.756L237.209 642.862L252.655 669.408L231.221 648.756ZM230.478 648.76L218.029 636.765L216.031 637.46L221.043 658.047L230.478 648.76ZM220.528 658.125L215.539 637.631L190.782 646.235L220.528 658.125ZM190.83 645.669L215.416 637.124L214.501 633.366L206.98 626.119L190.83 645.669ZM207.311 625.718L214.271 632.424L211.426 620.736L207.311 625.718ZM211.273 620.106L206.936 625.356L196.84 615.628L210.108 615.32L211.273 620.106ZM211.839 620.236L214.969 633.097L218.16 636.171L230.766 631.789L221.036 615.066L216.013 615.183L211.839 620.236ZM215.327 615.199L211.685 619.607L210.639 615.307L215.327 615.199ZM216.45 614.653L220.738 614.554L219 611.567L216.45 614.653ZM218.722 611.089L215.764 614.669L210.513 614.791L203.059 584.169L218.722 611.089ZM202.416 583.724L209.982 614.804L196.526 615.116L202.416 583.724ZM196.373 615.899L206.605 625.758L190.497 645.258L196.373 615.899ZM219.352 611.14L221.331 614.54L243.151 614.033L238.403 588.078L219.352 611.14ZM243.245 614.55L221.629 615.052L231.266 631.615L245.465 626.68L243.245 614.55ZM217.61 636.362L215.198 634.038L215.908 636.953L217.61 636.362ZM221.371 658.452L230.851 649.12L252.733 670.204L221.371 658.452ZM88.721 438.502L90.0911 424.391L77.403 428.425L88.721 438.502ZM46.9908 427.273L20.6988 391.863L16.9503 407.261L46.9908 427.273ZM120.512 389.436L141.332 393.802L144.146 387.475L135.5 375.956L120.512 389.436ZM144.503 387.95L141.851 393.911L150.308 395.684L144.503 387.95ZM99.456 327.934L98.0542 342.372L64.8983 315.206L77.0499 298.082L99.456 327.934ZM68.5855 286.129L78.2431 272.343H63.2339L66.8477 282.273C66.8967 282.408 66.8272 282.557 66.6926 282.606C66.5579 282.655 66.409 282.585 66.36 282.451L62.6816 272.343H44.9343L68.5855 286.129ZM44.5584 271.824H62.4928L57.3465 257.683L44.5584 271.824ZM57.7403 257.247L63.045 271.824H78.6067L95.245 248.073L63.3559 251.037L57.7403 257.247ZM62.592 251.108L57.5395 256.695L55.7381 251.745L62.592 251.108ZM63.8705 250.468L95.6356 247.516L101.363 239.34L91.8192 227.419L87.2282 224.639L63.8705 250.468ZM86.7761 224.365L63.1066 250.539L55.5547 251.241L49.1547 233.655L76.0953 217.897L86.7761 224.365ZM87.5827 224.247L90.8762 226.241L88.4827 223.252L87.5827 224.247ZM88.1541 222.841L87.1306 223.973L76.605 217.599L81.6121 214.67L88.1541 222.841ZM88.8353 222.862L92.1667 227.023L104.682 234.602L106.314 232.273L97.9268 212.808L88.8353 222.862ZM97.701 212.284L88.5067 222.451L82.0648 214.405L95.2834 206.673L97.701 212.284ZM98.3095 212.385L106.664 231.773L109.135 228.246L112.162 197.067L98.3095 212.385ZM112.246 196.2L98.0837 211.861L95.7034 206.337L113.573 182.529L112.246 196.2ZM112.746 196.421L109.74 227.382L131.816 195.869L120.91 187.393L112.746 196.421ZM120.499 187.074L112.83 195.554L114.134 182.127L120.499 187.074ZM121.259 187.007L132.114 195.444L151.991 167.07L149.275 165.548L134.461 172.408L121.259 187.007ZM133.258 172.965L120.848 186.688L114.417 181.69L133.258 172.965ZM135.351 171.424L148.716 165.235L143.561 162.345L135.351 171.424ZM143.097 162.085L134.147 171.981L114.86 180.912L134.555 157.297L143.097 162.085ZM143.918 161.95L149.298 164.966L155.466 162.109L160.758 154.555L155.051 149.639L143.918 161.95ZM154.658 149.3L143.454 161.69L134.837 156.86L143.284 139.978L144.365 140.433L154.658 149.3ZM155.4 149.254L161.058 154.128L164.658 148.988L158.129 146.236L155.4 149.254ZM157.623 146.022L155.006 148.915L145.922 141.09L157.623 146.022ZM158.498 145.828L164.963 148.553L169.393 142.229L169.955 133.158L158.498 145.828ZM170.006 132.328L157.991 145.614L144.641 139.987L143.69 139.167L162.427 101.721H171.904L170.006 132.328ZM170.513 132.541L169.963 141.415L177.92 130.056L177.454 124.866L170.513 132.541ZM177.391 124.162L170.565 131.71L172.424 101.721H175.375L177.391 124.162ZM177.928 124.341L178.382 129.397L195.66 104.733L177.928 124.341ZM197.602 101.202L173.9 79.4922L175.85 101.202H197.602ZM175.897 101.721L177.865 123.638L197.685 101.721H175.897ZM175.329 101.202L173.629 82.2775L172.456 101.202H175.329ZM171.936 101.202L173.244 80.1037L162.687 101.202H171.936ZM162.107 101.202L173.079 79.2736L134.912 90.9268L129.771 101.202H162.107ZM129.19 101.202L134.227 91.1359L124.809 94.0115L125.945 101.202H129.19ZM126.027 101.721H128.931L126.724 106.131L126.027 101.721ZM125.42 101.202L124.308 94.1645L120.344 95.3746L119.615 101.202H125.42ZM119.55 101.721H125.502L126.325 106.929L120.282 119.004L117.67 116.753L119.55 101.721ZM119.092 101.202L119.8 95.5406L101.259 101.202H119.092ZM100.44 100.909L119.871 94.9764L121.799 79.5666L100.44 100.909ZM122.18 80.7004L120.415 94.8104L124.226 93.6469L122.18 80.7004ZM124.727 93.4939L134.548 90.4954L140.246 79.1082H122.454L124.727 93.4939ZM122.96 78.5893H140.505L150.252 59.11L122.96 78.5893ZM151.031 58.7141L141.086 78.5893H172.91L151.031 58.7141ZM171.843 79.1082H140.826L135.233 90.2863L171.843 79.1082ZM100.618 102.75L115.812 127.421L117.12 116.965L100.618 102.75ZM117.198 116.346L119.027 101.721H100.219L117.198 116.346ZM117.593 117.372L116.424 126.715L120.043 119.482L117.593 117.372ZM120.448 119.832L116.334 128.054L130.614 134.073L129.61 127.724L120.448 119.832ZM130.219 128.248L131.177 134.311L143.038 139.311L143.045 139.296L130.219 128.248ZM143.284 138.817L130.093 127.455L126.863 107.012L129.511 101.721H161.847L143.284 138.817ZM126.464 107.81L129.485 126.931L120.688 119.353L126.464 107.81ZM142.805 139.776L131.272 134.914L134.624 156.125L142.805 139.776ZM134.045 155.788L130.709 134.677L116.65 128.75L134.045 155.788ZM177.992 130.858L169.902 142.407L169.404 150.425L175.316 152.918L179.788 150.847L177.992 130.858ZM174.68 153.212L169.37 150.974L169.071 155.81L174.68 153.212ZM168.535 156.058L168.864 150.761L165.147 149.194L161.453 154.468L165.129 157.635L168.535 156.058ZM165.561 158.007L168.27 160.34L168.499 156.646L165.561 158.007ZM164.612 157.874L161.153 154.895L156.404 161.675L164.612 157.874ZM165.452 148.759L168.898 150.212L169.331 143.222L165.452 148.759ZM154.873 162.956L149.856 165.279L152.29 166.643L154.873 162.956ZM94.7645 206.376L69.3904 198.574L81.737 213.996L94.7645 206.376ZM81.2842 214.261L68.6396 198.467L59.7239 207.376L76.0999 217.293L81.2842 214.261ZM75.5903 217.591L59.3459 207.753L44.96 222.128L48.9743 233.159L75.5903 217.591ZM48.519 233.425L44.555 222.533L38.6367 228.447L39.9208 238.455L48.519 233.425ZM39.4341 238.739L38.173 228.91L27.3637 239.711L29.799 244.375L39.4341 238.739ZM30.0395 244.836L39.5058 239.299L41.2092 252.575L34.4103 253.207L30.0395 244.836ZM29.3505 244.637L26.979 240.096L12.6685 254.395L29.3505 244.637ZM11.5573 254.772L26.7273 239.613L19.3654 225.514L11.5573 254.772ZM19.635 224.909L27.112 239.229L38.0895 228.26L36.4892 215.787L19.635 224.909ZM36.9784 215.522L38.5533 227.796L44.3592 221.995L41.1767 213.25L36.9784 215.522ZM40.9972 212.757L36.9076 214.97L34.242 194.194L40.9972 212.757ZM41.6381 213L44.7642 221.59L58.8887 207.477L55.5634 205.463L41.6381 213ZM55.0488 205.151L41.4586 212.507L34.1833 192.515L55.0488 205.151ZM56.0924 205.176L59.2668 207.099L67.2159 199.156L56.0924 205.176ZM67.8827 198.205L55.5779 204.865L35.008 192.408L67.8827 198.205ZM33.5494 192.874L36.4184 215.235L19.8272 224.215L33.5494 192.874ZM11.9869 255.812L43.3729 271.493L34.1115 253.756L11.9869 255.812ZM33.8519 253.258L29.591 245.098L12.1983 255.271L33.8519 253.258ZM34.6698 253.704L43.5317 270.676L41.2753 253.09L34.6698 253.704ZM41.7924 253.042L44.1595 271.491L57.1457 257.131L55.2039 251.795L41.7924 253.042ZM55.0205 251.291L48.6994 233.921L39.9926 239.014L41.7263 252.527L55.0205 251.291ZM109.033 229.296L106.905 232.333L108.401 235.805L109.033 229.296ZM108.248 236.762L106.555 232.833L105.127 234.872L108.248 236.762ZM104.384 235.028L93.1096 228.201L101.673 238.897L104.384 235.028ZM102.011 239.319L104.828 235.298L108.249 237.369L107.405 246.057L102.011 239.319ZM101.701 239.762L96.3133 247.453L107.059 246.454L101.701 239.762ZM107.896 246.376L108.722 237.863L112.218 245.974L107.896 246.376Z" fill="#008014"/>
</g>
</svg>
